<?xml version="1.0" encoding="UTF-8"?>
<svg id="Layer_1" xmlns="http://www.w3.org/2000/svg" version="1.1" viewBox="0 0 200 300">
  <!-- Generator: Adobe Illustrator 30.1.0, SVG Export Plug-In . SVG Version: 2.1.1 Build 136)  -->
  <defs>
    <style>
      .st0 {
        fill: #fff;
      }

      .st1 {
        fill: #ed1c24;
      }

      .st2 {
        fill: none;
        stroke: #231f20;
        stroke-miterlimit: 10;
      }

      .st3 {
        fill: #c7d2d4;
      }

      .st4 {
        fill: #d7df23;
      }
    </style>
  </defs>
  <path id="Shade" class="st3" d="M140.9,7.4c13.6,115.3,7.3,167.6-41.5,175.6,36.1-32.1,39.7-89.1,24-179.8,0,0,13.9.5,17.5,4.2Z"/>
  <rect id="Liquid" class="st1" x=".4" y="183" width="200" height="176.2"/>
  <path class="st4" d="M0,0v300h200V0H0ZM146.1,103.8c-1.5,79.5-47.9,79.5-47.9,79.5,0,0-47.8,0-48.1-76.9-.2-33.6,7.1-99.5,7.1-99.5,0,2.8,18.4,5.1,41.1,5.1s41.2-2.3,41.2-5.1h.1s7.1,66.6,6.5,96.9Z"/>
  <g id="Foot">
    <path class="st3" d="M152.3,288.7c-.6-3.6-31.4-9.7-45.4-11.8,4.3,9.2,7,4.9-3.2,10.1,7.6,2.4,8.9,7.8,8.9,7.8,19.4-.3,39.8-2.3,39.7-6h0Z"/>
    <path class="st2" d="M88.7,277.9c-15.5,2.5-41,7.8-41,10.9"/>
    <path class="st2" d="M152.3,288.7c0-3.9-40.5-10.7-45.4-11.8"/>
    <path class="st2" d="M47.8,291.3c-2.5,9.1,107,9.1,104.5,0"/>
    <path class="st2" d="M47.8,288.7c-2.5,9.1,107,9.1,104.5,0"/>
    <line class="st2" x1="47.8" y1="291.3" x2="47.8" y2="288.7"/>
    <line class="st2" x1="152.3" y1="288.7" x2="152.3" y2="291.3"/>
  </g>
  <g id="Stem">
    <path class="st3" d="M113.2,181.1s-8.1,2.2-13.9,2.2c-1.4,24.2-3.2,98.6,4.2,104.4,7.1-.9,9.7-2.9,9.7-2.9,0,0-8.1-6-9-17.4-1.2-16-.9-51.5-.2-70.5,1.2-10.7,9-15.9,9-15.9h.2Z"/>
    <path class="st2" d="M98.6,183.3c-5.8,0-14.8-3.4-14.8-3.4,0,0,7.9,5.2,9,15.9,1.2,18.9,1.1,54.5-.2,70.5-.9,11.4-9,17.4-9,17.4,0,0,6.2,3.6,14.8,3.5h0c8.6.1,14.8-3.5,14.8-3.5,0,0-8.1-6-9-17.4-1.2-16-1.4-51.6-.2-70.5,1.2-10.7,8.8-16,8.8-16,0,0-8.3,3.5-14.2,3.5"/>
  </g>
  <path id="Light" class="st0" d="M68.2,10.1c2.1.4,6.2.6,9.1.7-17.8,72.7-6.8,134.6,6.3,160-26.1-32.3-32.1-85-15.5-160.7h0Z"/>
  <path id="Neck" class="st2" d="M98.4,1.8c17.7,0,41.5,2.3,41.5,5.1s-23.8,5.1-41.5,5.1-40.8-2.3-40.8-5.1S80.7,1.8,98.4,1.8Z"/>
  <path id="Body" class="st2" d="M57.6,6.9s-7.3,65.9-7.1,99.5c.3,76.8,48.1,76.9,48.1,76.9,0,0,46.4,0,47.9-79.5.6-30.3-6.5-96.9-6.5-96.9"/>
</svg>