<?xml version="1.0" encoding="UTF-8"?>
<svg id="Layer_1" xmlns="http://www.w3.org/2000/svg" version="1.1" viewBox="0 0 200 300">
  <!-- Generator: Adobe Illustrator 30.1.0, SVG Export Plug-In . SVG Version: 2.1.1 Build 136)  -->
  <defs>
    <style>
      .st0 {
        fill: #fff;
      }

      .st1 {
        fill: #8f989a;
      }

      .st2 {
        fill: #ed1c24;
      }

      .st3 {
        fill: none;
        stroke: #231f20;
        stroke-miterlimit: 10;
      }

      .st4 {
        fill: #c7d2d4;
      }

      .st5 {
        fill: #d7df23;
      }
    </style>
  </defs>
  <rect id="Liquid" class="st2" y="285.5" width="200" height="188.3"/>
  <path id="Background" class="st5" d="M-.2,0v300h200V0H-.2ZM100.2,284.6c-26.3.3-81,3.7-76.7-77.9,1.5-37.5,20.2-110.3,20.2-110.3l5.8,1.4c9.1,1.3,28.4,2.2,50.7,2.2s56.2-1.7,56.3-3.9h.4s21.2,76.1,20.1,110.6c2.3,87.3-50.5,77.5-76.7,77.9Z"/>
  <path id="Light" class="st0" d="M57.6,100c6.1.7,4.7,1.2,13.6,1.4-25.5,102-26.2,126.2,5.8,162.5-62.4-12.6-39.2-76.4-19.3-163.9h0Z"/>
  <path id="Shade" class="st4" d="M157,97.4c33.2,138.8,29.5,193.4-56.8,187.2,63.6-34.7,42.9-80.4,28.1-190.8,0,0,26.7,1.1,28.7,3.6h0Z"/>
  <g id="Body">
    <g>
      <path class="st1" d="M176.5,213.4v3.4-5,1.8-.2h0Z"/>
      <path class="st1" d="M24.5,234.6l-1.3-21.2c0,7.8.4,14.8,1.3,21.2Z"/>
      <path class="st1" d="M99.9,284.5c-22.6-.9-66.9,2.5-75.4-49.8,7.6,62.9,50.1,63.6,75.4,63.6s75.4,3,76.7-81.6c-2,76.4-52.8,68.6-76.7,67.7h0Z"/>
    </g>
    <path class="st4" d="M140,293.4c0,1.1-17.7,4.1-39.4,4.1s-38.3-3.6-38.3-4.4,16.4-.7,38.2-.7,39.5,0,39.5,1.1h0Z"/>
    <path class="st3" d="M43.3,97.9s-18.4,71.3-19.9,108.8c-4.3,81.6,50.4,78.2,76.7,77.9,26.2-.4,79,9.4,76.7-77.9,1.1-34.5-20.1-110.6-20.1-110.6"/>
    <path class="st3" d="M43.8,96.1s-20.5,76.8-20.4,117.5c0,83.9,48.6,84.8,76.7,84.8s76.7,3,76.7-85c1.1-36.6-20.1-117.5-20.1-117.5"/>
  </g>
  <ellipse id="Neck" class="st3" cx="100" cy="96.1" rx="56.3" ry="3.9"/>
</svg>