<?xml version="1.0" encoding="UTF-8"?>
<svg id="Layer_1" xmlns="http://www.w3.org/2000/svg" version="1.1" viewBox="0 0 200 300">
  <!-- Generator: Adobe Illustrator 30.1.0, SVG Export Plug-In . SVG Version: 2.1.1 Build 136)  -->
  <defs>
    <style>
      .st0 {
        fill: #d7df23;
      }

      .st0, .st1 {
        stroke: #231f20;
        stroke-miterlimit: 10;
      }

      .st2 {
        fill: #fff;
      }

      .st3 {
        fill: #8f989a;
      }

      .st4 {
        fill: #ed1c24;
      }

      .st1 {
        fill: none;
      }

      .st5 {
        fill: #c7d2d4;
      }
    </style>
  </defs>
  <rect id="Liquid" class="st4" y="270.8" width="200" height="176.3"/>
  <path id="Background" class="st0" d="M0,0v300h200V0H0ZM172.9,262.4v.3c0,4.5-33.2,8.1-74.2,8.1s-74-3-74-7.5l-.2-.6V94.5h.6c2.5,2,34.5,3.6,73.6,3.6s73.8-1.7,73.8-3.9h.5s-.1,168.2-.1,168.2Z"/>
  <path id="Shade" class="st5" d="M124.6,90.9s2.6,130.8,1.1,172.3c0,1.9-1.5,6.9-4.3,6.9,9.9.9,48.2-.7,51.7-9.1-.7-32.9,0-129-.4-166.5-9.7-2.6-48.1-3.7-48.1-3.7h0Z"/>
  <ellipse id="Neck" class="st1" cx="98.8" cy="94.5" rx="73.8" ry="3.9"/>
  <path id="Light" class="st2" d="M53,98.5l-2.4,123.2c-6.2,0-12.2-1.3-15.8-4.7.7-32.9,1-82.3,1.4-119.7,10.5,1.2,16.8,1.1,16.9,1.2h0Z"/>
  <g id="Body">
    <path class="st5" d="M173.1,262.7c0-.2-.1-.4-.3-.7-.9,4.9-33.7,8.8-74,8.8s-72.2-3.8-74-8.6c0,.2-.1.3-.1.5v22.4c0,4.5,33.2,13.3,74.2,13.3s73.5-8.8,73.5-13.3"/>
    <path class="st3" d="M25.5,264.8l-.3,21.4s0,3.6,30.5,8.9c-23.5-5.3-22.5-6.4-22.1-16.7s2.1-10,22.7-8.3c-20.9-1.1-30.8-5.3-30.8-5.3h0Z"/>
    <path class="st3" d="M172.4,264.8l.3,21.4s0,3.6-30.5,8.9c23.5-5.3,22.5-6.4,22.1-16.7-.4-11.3-2.1-10-22.7-8.3,20.9-1.1,30.8-5.3,30.8-5.3h0Z"/>
    <path class="st3" d="M172.7,207.1h0v54.8s3.4,4.8-22.1,6.6c18.8-4.5,18.1-11.6,22.1-61.4Z"/>
    <path class="st3" d="M46.9,268.7c-25.5-1.7-22.1-6.6-22.1-6.6v-54.8h0c4,49.8,3.3,56.8,22.1,61.4Z"/>
    <path class="st1" d="M24.6,285c0,4.5,33.3,13.3,74.2,13.3s74.2-8.8,74.2-13.3"/>
    <g>
      <path class="st1" d="M173.1,265.6"/>
      <path class="st1" d="M24.6,265.6"/>
      <path class="st1" d="M173,262.7c0,4.5-33.2,8.1-74.2,8.1s-74.2-3.6-74.2-8.1"/>
      <path class="st1" d="M98.8,254.6"/>
    </g>
    <line class="st1" x1="173.1" y1="285" x2="173.1" y2="94.5"/>
    <line class="st1" x1="24.6" y1="285" x2="24.6" y2="94.5"/>
  </g>
  <g>
    <path class="st1" d="M409.9,282.6"/>
    <path class="st1" d="M261.4,282.6"/>
    <path class="st1" d="M335.6,271.6"/>
  </g>
</svg>