<?xml version="1.0" encoding="UTF-8"?>
<svg id="Layer_1" xmlns="http://www.w3.org/2000/svg" version="1.1" viewBox="0 0 200 300">
  <!-- Generator: Adobe Illustrator 30.1.0, SVG Export Plug-In . SVG Version: 2.1.1 Build 136)  -->
  <defs>
    <style>
      .st0 {
        fill: #fff;
      }

      .st1 {
        fill: #c8d3d4;
      }

      .st2 {
        fill: #ed1c24;
      }

      .st3 {
        fill: none;
        stroke: #231f20;
        stroke-miterlimit: 10;
      }

      .st4 {
        fill: #d7df23;
      }
    </style>
  </defs>
  <path id="Shade" class="st1" d="M157.1,6.3c46.7,104.2,29.3,169.5-53.2,176.4,43-31.6,70.2-92.9,35.8-179.8,0,0,15.8.9,17.4,3.4Z"/>
  <rect id="Liquid" class="st2" y="182.5" width="200" height="176.2"/>
  <path class="st4" d="M0,0v300h200V0H0ZM183.4,103c-2.6,79.5-79.3,79.5-79.3,79.5,0,0-79-.1-79.5-76.9-.2-33.6,26.4-98.4,26.4-98.4l.3-.7c5.5,2.1,27.7,4.4,52.8,4.4s50.1-1.9,52.6-4.3c2.4,5.8,27.8,67.6,26.8,96.5h0Z"/>
  <g id="Foot">
    <path class="st1" d="M168.6,290c-.8-3.6-38.8-9.7-56.2-11.8,5.3,9.2,8.6,4.9-4,10.1,9.4,2.4,11,7.8,11,7.8,24-.3,49.2-2.3,49.1-6h.1Z"/>
    <path class="st3" d="M91.7,278.8c-19.3,2.5-52.4,8.2-52.4,11.3"/>
    <path class="st3" d="M168.6,290c0-3.9-50.4-11.8-56.6-11.8"/>
    <path class="st3" d="M39.3,292.6c-3.1,9.1,132.4,9.1,129.3,0"/>
    <path class="st3" d="M39.3,290c-3.1,9.1,132.4,9.1,129.3,0"/>
    <line class="st3" x1="39.3" y1="292.6" x2="39.3" y2="290"/>
    <line class="st3" x1="168.6" y1="290" x2="168.6" y2="292.6"/>
  </g>
  <g id="Stem">
    <path class="st1" d="M119,181.5s-9.1,2.2-15.7,2.2c-1.6,24.2-3.6,98.6,4.8,104.4,8-.9,11-2.9,11-2.9,0,0-9.1-6-10.2-17.4-1.4-16-1-51.5-.2-70.5,1.4-10.7,10.2-15.9,10.2-15.9h0Z"/>
    <path class="st3" d="M102.3,183.4c-6.6,0-16.6-2.2-16.6-2.2,0,0,8.9,5.2,10.2,15.9,1.4,18.9,1.2,54.5-.2,70.5-1,11.4-10.2,17.4-10.2,17.4,0,0,7,3.6,16.7,3.5h0c9.7.1,16.7-3.5,16.7-3.5,0,0-9.1-6-10.2-17.4-1.4-16-1.6-51.6-.2-70.5,1.4-10.7,10.2-15.9,10.2-15.9,0,0-10,2.2-16.6,2.2"/>
  </g>
  <path id="Light" class="st0" d="M58.3,9.2c3.4.4,5.9,1.4,10.8,1.5-29.4,72.7-14.7,121.2,7,146.6C30.2,126.8,30.7,84.9,58.3,9.2Z"/>
  <ellipse id="Neck" class="st3" cx="104" cy="6.3" rx="53.1" ry="5.1"/>
  <path id="Body" class="st3" d="M51,7.4s-26.6,64.8-26.4,98.4c.5,76.8,79.5,76.9,79.5,76.9,0,0,76.7,0,79.3-79.5,1-30.3-27-96.9-27-96.9"/>
</svg>